<svg xmlns="http://www.w3.org/2000/svg" viewBox="0 0 944.58 1037.77"><defs><style>.cls-1{fill:#ef811c;}.cls-2{fill:#2d6f64;}.cls-3{fill:#561419;}</style></defs><g id="Layer_2" data-name="Layer 2"><g id="Layer_1-2" data-name="Layer 1"><polygon class="cls-1" points="278.47 919.19 192.59 755.82 192.59 534.45 352.62 374.38 578.98 374.38 735.62 531.05 774.88 662.95 717.96 679.89 683 562.45 554.38 433.8 377.23 433.8 252.01 559.05 252.01 741.14 331.04 891.57 278.47 919.19"/><polygon class="cls-1" points="46.71 410.77 0 374.04 85.97 264.74 326.08 126.12 605.53 126.12 847.32 267.12 944.58 369.22 901.58 410.19 807.26 311.19 589.63 185.54 341.98 185.54 125.6 310.47 46.71 410.77"/><polygon class="cls-2" points="787.15 140.05 600.68 59.42 331.36 59.42 169.29 134.91 144.22 81.06 318.19 0 612.99 0 810.71 85.5 787.15 140.05"/><polygon class="cls-2" points="607.45 1037.77 420.98 930.48 301.76 733.48 301.76 552.93 465.8 458.23 629.84 552.93 629.84 707.51 710.01 747.66 826.32 718.22 824.2 590.91 722.39 391.01 522.58 289.2 301.07 324.28 142.48 482.89 107.38 704.41 213.59 912.81 160.67 939.79 45.7 714.15 86.84 454.52 272.69 268.63 532.33 227.52 766.55 346.85 885.88 581.04 885.88 764.64 696.83 811.61 570.42 742.85 570.42 587.22 465.8 526.82 361.18 587.22 361.18 716.88 463.86 886.61 637.1 986.24 607.45 1037.77"/><polygon class="cls-3" points="797.71 931.29 588.93 888.2 465.75 772.03 423.65 637.3 480.34 619.6 517.79 739.48 617.42 833.43 809.72 873.09 797.71 931.29"/></g></g></svg>