<svg xmlns="http://www.w3.org/2000/svg" viewBox="0 0 248.07 80.08"><defs><style>.cls-1{fill:#1d1d1b;}.cls-2{fill:#ef811c;}.cls-3{fill:#2d6f64;}.cls-4{fill:#561419;}</style></defs><g id="Layer_2" data-name="Layer 2"><g id="Layer_1-2" data-name="Layer 1"><path class="cls-1" d="M93.15,22.48a10.1,10.1,0,0,1-5.29-1.3,8.41,8.41,0,0,1-3.34-3.68,12.76,12.76,0,0,1-1.17-5.68,12.65,12.65,0,0,1,1.17-5.66,8.44,8.44,0,0,1,3.34-3.67A10.19,10.19,0,0,1,93.15,1.2a10.87,10.87,0,0,1,3.95.67,8.92,8.92,0,0,1,3,2l-.91,2A10.28,10.28,0,0,0,96.42,4a8.44,8.44,0,0,0-3.24-.58,6.67,6.67,0,0,0-5.41,2.21,9.36,9.36,0,0,0-1.86,6.21,9.43,9.43,0,0,0,1.86,6.23,6.64,6.64,0,0,0,5.41,2.22,8.45,8.45,0,0,0,3.24-.57,10.44,10.44,0,0,0,2.8-1.84l.91,2a9.17,9.17,0,0,1-3,2A10.46,10.46,0,0,1,93.15,22.48Z"/><path class="cls-1" d="M101.28,28.89l-.56-2a13.07,13.07,0,0,0,2.31-.75A4.43,4.43,0,0,0,104.57,25a6.07,6.07,0,0,0,1.06-1.77l.77-1.74-.06,1L99.89,7.44h2.59l5.33,13h-.76l5.27-13h2.5l-6.83,16a11.36,11.36,0,0,1-1.3,2.37,7.76,7.76,0,0,1-1.51,1.56,6.92,6.92,0,0,1-1.78.95A11.94,11.94,0,0,1,101.28,28.89Z"/><path class="cls-1" d="M123.44,22.48a5.8,5.8,0,0,1-3.44-1,4.94,4.94,0,0,1-2-2.78h.33v3.53H116V.55h2.39V10.88h-.36a4.88,4.88,0,0,1,2-2.71,5.94,5.94,0,0,1,3.44-1,6.3,6.3,0,0,1,3.46.93,6.21,6.21,0,0,1,2.26,2.63,9.47,9.47,0,0,1,.81,4.09,9.37,9.37,0,0,1-.82,4.1,6.32,6.32,0,0,1-2.28,2.63A6.25,6.25,0,0,1,123.44,22.48Zm-.5-1.95a4.27,4.27,0,0,0,3.36-1.44,6.31,6.31,0,0,0,1.26-4.27,6.38,6.38,0,0,0-1.26-4.28,4.25,4.25,0,0,0-3.36-1.46,4.19,4.19,0,0,0-3.34,1.46,6.43,6.43,0,0,0-1.25,4.28,6.39,6.39,0,0,0,1.25,4.26A4.18,4.18,0,0,0,122.94,20.53Z"/><path class="cls-1" d="M138.77,22.48a7.38,7.38,0,0,1-5.47-2,7.62,7.62,0,0,1-2-5.61,8.69,8.69,0,0,1,.88-4,6.53,6.53,0,0,1,2.47-2.68,6.93,6.93,0,0,1,3.65-1,6.5,6.5,0,0,1,3.42.85,5.54,5.54,0,0,1,2.12,2.43,8.74,8.74,0,0,1,.73,3.73v.88H133.12v-1.5H143l-.5.38a5.72,5.72,0,0,0-1.06-3.68,3.78,3.78,0,0,0-3.15-1.32,4.15,4.15,0,0,0-3.44,1.54,6.51,6.51,0,0,0-1.24,4.17v.26a5.87,5.87,0,0,0,1.37,4.2,5.06,5.06,0,0,0,3.84,1.42,7.78,7.78,0,0,0,2.49-.39,6.7,6.7,0,0,0,2.22-1.31l.83,1.67A6.52,6.52,0,0,1,141.91,22,9.36,9.36,0,0,1,138.77,22.48Z"/><path class="cls-1" d="M146.69,22.21V11c0-.59,0-1.19,0-1.8s-.08-1.19-.14-1.76h2.3L149.1,11l-.41,0a4.92,4.92,0,0,1,1-2.18,4.63,4.63,0,0,1,1.74-1.28,5.15,5.15,0,0,1,2.09-.43q.44,0,.78,0a2.15,2.15,0,0,1,.63.15l0,2.12a3.91,3.91,0,0,0-.81-.19,6.78,6.78,0,0,0-.84,0,4.08,4.08,0,0,0-2.25.62,3.93,3.93,0,0,0-1.44,1.59,4.47,4.47,0,0,0-.49,2.06v8.71Z"/><path class="cls-1" d="M84.12,50.74V30H92.6a7.54,7.54,0,0,1,5.06,1.54,5.43,5.43,0,0,1,1.79,4.32,5.68,5.68,0,0,1-.81,3.1,5.22,5.22,0,0,1-2.26,2,8.06,8.06,0,0,1-3.4.68l.53-.39h.58a4.08,4.08,0,0,1,2.17.59,3.91,3.91,0,0,1,1.51,2l3,7H98l-2.83-6.86a2.72,2.72,0,0,0-1.5-1.72,6.68,6.68,0,0,0-2.5-.4H86.56v9Zm2.44-10.89h5.68a5.48,5.48,0,0,0,3.58-1A3.59,3.59,0,0,0,97,35.9,3.56,3.56,0,0,0,95.82,33a5.53,5.53,0,0,0-3.58-1H86.56Z"/><path class="cls-1" d="M109,51a7.39,7.39,0,0,1-5.48-2,7.63,7.63,0,0,1-2-5.61,8.76,8.76,0,0,1,.89-4.05,6.44,6.44,0,0,1,2.47-2.67,6.91,6.91,0,0,1,3.65-1,6.37,6.37,0,0,1,3.41.85A5.54,5.54,0,0,1,114.05,39a8.72,8.72,0,0,1,.74,3.72v.89H103.34v-1.5h9.89l-.5.38a5.78,5.78,0,0,0-1.06-3.68,3.81,3.81,0,0,0-3.15-1.32A4.18,4.18,0,0,0,105.07,39a6.51,6.51,0,0,0-1.23,4.17v.26a5.8,5.8,0,0,0,1.37,4.19,5,5,0,0,0,3.84,1.43,7.46,7.46,0,0,0,2.48-.4,6.67,6.67,0,0,0,2.23-1.31l.82,1.68a6.52,6.52,0,0,1-2.46,1.46A9.55,9.55,0,0,1,109,51Z"/><path class="cls-1" d="M121.88,51a11,11,0,0,1-3.3-.48,7,7,0,0,1-2.53-1.37l.82-1.68a7.77,7.77,0,0,0,2.37,1.27,8.87,8.87,0,0,0,2.67.41,4.62,4.62,0,0,0,2.66-.63,2,2,0,0,0,.9-1.75,1.73,1.73,0,0,0-.58-1.37,4,4,0,0,0-1.86-.81L120.29,44a5.43,5.43,0,0,1-2.83-1.4,3.54,3.54,0,0,1-.94-2.52,4,4,0,0,1,.68-2.28,4.67,4.67,0,0,1,2-1.56,7.48,7.48,0,0,1,3-.57,9,9,0,0,1,3,.48,6.23,6.23,0,0,1,2.28,1.4l-.85,1.65a5.88,5.88,0,0,0-2-1.28,6.65,6.65,0,0,0-2.34-.43,4,4,0,0,0-2.6.7,2.19,2.19,0,0,0-.87,1.8,1.9,1.9,0,0,0,.54,1.4,3.38,3.38,0,0,0,1.7.81l2.73.56a6.31,6.31,0,0,1,3,1.37,3.25,3.25,0,0,1,1,2.49A3.77,3.77,0,0,1,127,49a4.58,4.58,0,0,1-2,1.51A8,8,0,0,1,121.88,51Z"/><path class="cls-1" d="M136.65,51a7.37,7.37,0,0,1-5.47-2,7.63,7.63,0,0,1-2-5.61,8.76,8.76,0,0,1,.88-4.05,6.51,6.51,0,0,1,2.47-2.67,6.93,6.93,0,0,1,3.65-1,6.4,6.4,0,0,1,3.42.85A5.54,5.54,0,0,1,141.72,39a8.73,8.73,0,0,1,.73,3.72v.89H131v-1.5h9.89l-.5.38a5.72,5.72,0,0,0-1.06-3.68,3.78,3.78,0,0,0-3.15-1.32A4.15,4.15,0,0,0,132.74,39a6.51,6.51,0,0,0-1.24,4.17v.26a5.84,5.84,0,0,0,1.37,4.19,5,5,0,0,0,3.84,1.43,7.51,7.51,0,0,0,2.49-.4,6.53,6.53,0,0,0,2.22-1.31l.83,1.68a6.52,6.52,0,0,1-2.46,1.46A9.61,9.61,0,0,1,136.65,51Z"/><path class="cls-1" d="M150.25,51a6.3,6.3,0,0,1-3.44-.92,6.15,6.15,0,0,1-2.28-2.64,9.44,9.44,0,0,1-.81-4.09,9.55,9.55,0,0,1,.81-4.12,6,6,0,0,1,2.28-2.62,6.38,6.38,0,0,1,3.44-.91,5.93,5.93,0,0,1,3.46,1,4.83,4.83,0,0,1,1.93,2.76h-.36l.33-3.51h2.29c-.05.57-.11,1.15-.16,1.73s-.07,1.14-.07,1.69V50.74h-2.39V47.27h.33A4.7,4.7,0,0,1,153.67,50,5.93,5.93,0,0,1,150.25,51Zm.47-1.94a4.15,4.15,0,0,0,3.36-1.46,6.41,6.41,0,0,0,1.23-4.25,6.48,6.48,0,0,0-1.23-4.28,4.57,4.57,0,0,0-6.7,0,6.43,6.43,0,0,0-1.25,4.28,6.36,6.36,0,0,0,1.25,4.25A4.17,4.17,0,0,0,150.72,49.06Z"/><path class="cls-1" d="M160.76,50.74V39.53c0-.59,0-1.19,0-1.8s-.07-1.2-.13-1.77h2.3l.29,3.59-.41,0a4.92,4.92,0,0,1,1-2.18,4.63,4.63,0,0,1,1.74-1.28,5.15,5.15,0,0,1,2.09-.43q.44,0,.78,0a2.23,2.23,0,0,1,.63.15L169,38a4,4,0,0,0-.81-.2,7.06,7.06,0,0,0-.84,0,4,4,0,0,0-2.25.62A3.93,3.93,0,0,0,163.66,40a4.44,4.44,0,0,0-.49,2.06v8.71Z"/><path class="cls-1" d="M176.06,51a7.31,7.31,0,0,1-3.78-.94,6.29,6.29,0,0,1-2.47-2.68,9.07,9.07,0,0,1-.87-4.12,8.87,8.87,0,0,1,.88-4.1,6.08,6.08,0,0,1,2.49-2.58,7.64,7.64,0,0,1,3.75-.88,7.92,7.92,0,0,1,2.76.5A5.87,5.87,0,0,1,181,37.61l-.86,1.71a5.89,5.89,0,0,0-1.92-1.27,5.67,5.67,0,0,0-2-.41,4.48,4.48,0,0,0-3.56,1.44,6.23,6.23,0,0,0-1.27,4.21,6.41,6.41,0,0,0,1.27,4.24,4.4,4.4,0,0,0,3.56,1.5,6,6,0,0,0,2-.38,5.6,5.6,0,0,0,2-1.27l.86,1.68a6,6,0,0,1-2.27,1.44A7.59,7.59,0,0,1,176.06,51Z"/><path class="cls-1" d="M183,50.74V29.08h2.38V39.23H185A4.91,4.91,0,0,1,187,36.6a6.27,6.27,0,0,1,3.37-.9,5.07,5.07,0,0,1,3.94,1.43,6.24,6.24,0,0,1,1.3,4.31v9.3h-2.39V41.59a4.57,4.57,0,0,0-.81-3,3.27,3.27,0,0,0-2.6-.94,4.31,4.31,0,0,0-3.28,1.27,4.55,4.55,0,0,0-1.23,3.32v8.51Z"/><path class="cls-1" d="M93.15,79.53a10.1,10.1,0,0,1-5.29-1.3,8.38,8.38,0,0,1-3.34-3.67,12.81,12.81,0,0,1-1.17-5.69,12.68,12.68,0,0,1,1.17-5.66,8.49,8.49,0,0,1,3.34-3.67,10.19,10.19,0,0,1,5.29-1.29,10.87,10.87,0,0,1,3.95.68,8.77,8.77,0,0,1,3,2l-.91,1.94A10.52,10.52,0,0,0,96.42,61a8.45,8.45,0,0,0-3.24-.57,6.66,6.66,0,0,0-5.41,2.2,9.39,9.39,0,0,0-1.86,6.21,9.43,9.43,0,0,0,1.86,6.23,6.64,6.64,0,0,0,5.41,2.22,8.45,8.45,0,0,0,3.24-.57,10.2,10.2,0,0,0,2.8-1.84l.91,2a9.2,9.2,0,0,1-3,2A10.66,10.66,0,0,1,93.15,79.53Z"/><path class="cls-1" d="M107.58,79.53a7.2,7.2,0,0,1-3.73-.93A6.13,6.13,0,0,1,101.42,76a10.22,10.22,0,0,1,0-8.16,6.22,6.22,0,0,1,2.43-2.64,7.12,7.12,0,0,1,3.69-.92,7.19,7.19,0,0,1,3.73.92,6.3,6.3,0,0,1,2.44,2.64,10,10,0,0,1,0,8.16,6.21,6.21,0,0,1-2.44,2.65A7.12,7.12,0,0,1,107.58,79.53Zm0-1.94a4.13,4.13,0,0,0,3.32-1.46,6.43,6.43,0,0,0,1.24-4.25,6.41,6.41,0,0,0-1.25-4.28,4.18,4.18,0,0,0-3.35-1.46,4.1,4.1,0,0,0-3.32,1.46A6.47,6.47,0,0,0,103,71.88a6.43,6.43,0,0,0,1.24,4.25A4.17,4.17,0,0,0,107.58,77.59Z"/><path class="cls-1" d="M116.82,79.26V67.9c0-.54,0-1.11-.08-1.69s-.1-1.15-.16-1.72h2.3l.29,3.24h-.35a5.12,5.12,0,0,1,2.07-2.61,6.1,6.1,0,0,1,3.31-.89,5.23,5.23,0,0,1,4,1.39A6.16,6.16,0,0,1,129.5,70v9.24h-2.38V70.17a4.57,4.57,0,0,0-.84-3,3.32,3.32,0,0,0-2.61-1,4.29,4.29,0,0,0-3.26,1.26,4.69,4.69,0,0,0-1.21,3.39v8.44Z"/><path class="cls-1" d="M133.36,79.26V66.34h-2.89V64.49H134l-.65.62V62.64a5.34,5.34,0,0,1,1.26-3.83,4.79,4.79,0,0,1,3.62-1.33,7.37,7.37,0,0,1,1.22.11,4.37,4.37,0,0,1,1,.28v2a4.38,4.38,0,0,0-.87-.25,5.16,5.16,0,0,0-1-.1,3.16,3.16,0,0,0-1.56.36,2.3,2.3,0,0,0-1,1.11,4.62,4.62,0,0,0-.33,1.88V65l-.38-.5h4.5v1.85h-4.12V79.26Z"/><path class="cls-1" d="M147.22,79.53a7.34,7.34,0,0,1-5.47-2,7.57,7.57,0,0,1-2-5.6,8.76,8.76,0,0,1,.88-4,6.53,6.53,0,0,1,2.47-2.68,6.92,6.92,0,0,1,3.65-1,6.37,6.37,0,0,1,3.41.85,5.48,5.48,0,0,1,2.12,2.43,8.72,8.72,0,0,1,.74,3.72v.88H141.57v-1.5h9.89L151,71a5.69,5.69,0,0,0-1.06-3.67A3.78,3.78,0,0,0,146.75,66a4.16,4.16,0,0,0-3.44,1.55,6.43,6.43,0,0,0-1.24,4.16V72a5.84,5.84,0,0,0,1.37,4.19,5.07,5.07,0,0,0,3.84,1.43,7.56,7.56,0,0,0,2.49-.4A6.73,6.73,0,0,0,152,75.88l.82,1.68A6.38,6.38,0,0,1,150.36,79,9.4,9.4,0,0,1,147.22,79.53Z"/><path class="cls-1" d="M155.14,79.26V68.05c0-.59,0-1.19,0-1.79s-.07-1.2-.13-1.77h2.3l.29,3.59-.41,0a5,5,0,0,1,1-2.18,4.74,4.74,0,0,1,1.74-1.28,5.31,5.31,0,0,1,2.09-.42c.29,0,.55,0,.78,0a2.23,2.23,0,0,1,.63.15l0,2.12a3.91,3.91,0,0,0-.81-.19,7,7,0,0,0-.84,0,4,4,0,0,0-3.69,2.2,4.49,4.49,0,0,0-.49,2.06v8.71Z"/><path class="cls-1" d="M170.8,79.53a7.36,7.36,0,0,1-5.48-2,7.61,7.61,0,0,1-2-5.6,8.76,8.76,0,0,1,.88-4,6.56,6.56,0,0,1,2.48-2.68,6.9,6.9,0,0,1,3.65-1,6.37,6.37,0,0,1,3.41.85,5.54,5.54,0,0,1,2.12,2.43,8.73,8.73,0,0,1,.73,3.72v.88H165.14v-1.5H175l-.5.38a5.69,5.69,0,0,0-1.06-3.67A3.75,3.75,0,0,0,170.33,66a4.18,4.18,0,0,0-3.45,1.55,6.48,6.48,0,0,0-1.23,4.16V72A5.84,5.84,0,0,0,167,76.16a5.11,5.11,0,0,0,3.85,1.43,7.46,7.46,0,0,0,2.48-.4,6.53,6.53,0,0,0,2.22-1.31l.83,1.68A6.5,6.5,0,0,1,173.93,79,9.3,9.3,0,0,1,170.8,79.53Z"/><path class="cls-1" d="M178.77,79.26V67.9c0-.54,0-1.11-.07-1.69s-.1-1.15-.16-1.72h2.29l.3,3.24h-.36a5.18,5.18,0,0,1,2.08-2.61,6.05,6.05,0,0,1,3.31-.89,5.23,5.23,0,0,1,4,1.39,6.21,6.21,0,0,1,1.34,4.4v9.24h-2.39V70.17a4.63,4.63,0,0,0-.83-3,3.32,3.32,0,0,0-2.61-1,4.33,4.33,0,0,0-3.27,1.26,4.73,4.73,0,0,0-1.2,3.39v8.44Z"/><path class="cls-1" d="M200.76,79.53a7.31,7.31,0,0,1-3.78-.94,6.31,6.31,0,0,1-2.48-2.68,9.1,9.1,0,0,1-.86-4.12,8.79,8.79,0,0,1,.88-4.11A6.12,6.12,0,0,1,197,65.11a7.62,7.62,0,0,1,3.75-.88,7.86,7.86,0,0,1,2.75.49,6,6,0,0,1,2.22,1.42l-.85,1.71A5.77,5.77,0,0,0,203,66.58a5.46,5.46,0,0,0-2-.41,4.5,4.5,0,0,0-3.57,1.44,6.21,6.21,0,0,0-1.26,4.21,6.42,6.42,0,0,0,1.26,4.24,4.42,4.42,0,0,0,3.57,1.5,5.73,5.73,0,0,0,2-.39,5.46,5.46,0,0,0,2-1.26l.85,1.68A5.93,5.93,0,0,1,203.47,79,7.9,7.9,0,0,1,200.76,79.53Z"/><path class="cls-1" d="M213.91,79.53a7.34,7.34,0,0,1-5.47-2,7.61,7.61,0,0,1-2-5.6,8.76,8.76,0,0,1,.88-4,6.53,6.53,0,0,1,2.47-2.68,6.92,6.92,0,0,1,3.65-1,6.4,6.4,0,0,1,3.42.85A5.54,5.54,0,0,1,219,67.51a8.73,8.73,0,0,1,.73,3.72v.88H208.26v-1.5h9.89l-.5.38a5.69,5.69,0,0,0-1.06-3.67A3.76,3.76,0,0,0,213.44,66,4.16,4.16,0,0,0,210,67.54a6.48,6.48,0,0,0-1.24,4.16V72a5.84,5.84,0,0,0,1.37,4.19A5.08,5.08,0,0,0,214,77.59a7.51,7.51,0,0,0,2.49-.4,6.53,6.53,0,0,0,2.22-1.31l.83,1.68A6.5,6.5,0,0,1,217.05,79,9.36,9.36,0,0,1,213.91,79.53Z"/><polygon class="cls-2" points="21.49 70.93 14.86 58.32 14.86 41.24 27.21 28.89 44.68 28.89 56.76 40.98 59.79 51.16 55.4 52.46 52.7 43.4 42.78 33.47 29.11 33.47 19.45 43.14 19.45 57.19 25.54 68.8 21.49 70.93"/><polygon class="cls-2" points="3.6 31.7 0 28.86 6.63 20.43 25.16 9.73 46.73 9.73 65.38 20.61 72.89 28.49 69.57 31.65 62.29 24.01 45.5 14.32 26.39 14.32 9.69 23.96 3.6 31.7"/><polygon class="cls-3" points="60.74 10.81 46.35 4.58 25.57 4.58 13.06 10.41 11.13 6.25 24.55 0 47.3 0 62.56 6.6 60.74 10.81"/><polygon class="cls-3" points="46.87 80.08 32.48 71.8 23.29 56.6 23.29 42.67 35.94 35.36 48.6 42.67 48.6 54.59 54.79 57.69 63.76 55.42 63.6 45.6 55.74 30.17 40.33 22.32 23.23 25.02 10.99 37.26 8.29 54.35 16.48 70.44 12.4 72.52 3.53 55.11 6.7 35.07 21.04 20.73 41.08 17.56 59.15 26.76 68.36 44.84 68.36 59 53.77 62.63 44.02 57.32 44.02 45.31 35.94 40.65 27.87 45.31 27.87 55.32 35.79 68.41 49.16 76.1 46.87 80.08"/><polygon class="cls-4" points="61.55 71.86 45.45 68.54 35.94 59.57 32.69 49.18 37.06 47.81 39.95 57.06 47.64 64.31 62.48 67.37 61.55 71.86"/><path class="cls-2" d="M235.51,76.12l-1.23,3.36H224V79a46.11,46.11,0,0,0,6.41-6.79,8.56,8.56,0,0,0,1.86-4.81,3.83,3.83,0,0,0-1-2.74,3.26,3.26,0,0,0-2.44-1.07,3.75,3.75,0,0,0-2.31.76,4.42,4.42,0,0,0-1.52,2.21h-.47a6,6,0,0,1,1.65-3.66,4.62,4.62,0,0,1,3.34-1.28A4.89,4.89,0,0,1,233,63a4.32,4.32,0,0,1,1.43,3.22,6.3,6.3,0,0,1-.62,2.66,17.5,17.5,0,0,1-3.1,4.42q-3.21,3.51-4,4.24h4.57a12,12,0,0,0,1.95-.11,2.52,2.52,0,0,0,1-.42,2.65,2.65,0,0,0,.79-.89Z"/><path class="cls-2" d="M248.07,62l-1,2.19H241.8l-1.14,2.35a9.23,9.23,0,0,1,5.41,2.54,5.7,5.7,0,0,1,1.72,4.13,6,6,0,0,1-.56,2.56,7.13,7.13,0,0,1-1.41,2,7.18,7.18,0,0,1-4.94,2,3.9,3.9,0,0,1-2.29-.53,1.5,1.5,0,0,1-.72-1.18.84.84,0,0,1,.3-.64,1,1,0,0,1,.74-.28,1.73,1.73,0,0,1,.59.1,5.56,5.56,0,0,1,.86.53,3.38,3.38,0,0,0,2,.67A3.63,3.63,0,0,0,245,77.32a3.79,3.79,0,0,0,1.14-2.78,4.87,4.87,0,0,0-1-3,6.56,6.56,0,0,0-2.81-2.12,11.32,11.32,0,0,0-3.83-.67L241.8,62Z"/></g></g></svg>