<svg xmlns="http://www.w3.org/2000/svg" viewBox="0 0 331.1 63.18"><defs><style>.cls-1{fill:#1d1d1b;}.cls-2{fill:#ef811c;}.cls-3{fill:#2d6f64;}.cls-4{fill:#561419;}.cls-5{fill:#411200;}.cls-6{isolation:isolate;}</style></defs><g id="Layer_2" data-name="Layer 2"><g id="Layer_1-2" data-name="Layer 1"><path class="cls-1" d="M54.64,13.89a6,6,0,0,1-3.11-.76,5,5,0,0,1-2-2.15,7.65,7.65,0,0,1-.68-3.34,7.56,7.56,0,0,1,.68-3.32,5,5,0,0,1,2-2.15,6,6,0,0,1,3.11-.76,6.22,6.22,0,0,1,2.31.4A5,5,0,0,1,58.73,3L58.19,4.1A6.23,6.23,0,0,0,56.55,3a5,5,0,0,0-1.9-.33A3.9,3.9,0,0,0,51.48,4a5.47,5.47,0,0,0-1.09,3.64,5.53,5.53,0,0,0,1.09,3.66,3.91,3.91,0,0,0,3.17,1.3,4.81,4.81,0,0,0,1.9-.34,5.65,5.65,0,0,0,1.64-1.08l.54,1.16A5.45,5.45,0,0,1,57,13.49,6.22,6.22,0,0,1,54.64,13.89Z"/><path class="cls-1" d="M59.4,17.66l-.33-1.16a7,7,0,0,0,1.36-.44,2.92,2.92,0,0,0,.91-.66,4.15,4.15,0,0,0,.62-1l.45-1,0,.59L58.59,5.07h1.52l3.13,7.62h-.45l3.09-7.62h1.46l-4,9.39a6.19,6.19,0,0,1-.76,1.39,4,4,0,0,1-1.93,1.48A7.35,7.35,0,0,1,59.4,17.66Z"/><path class="cls-1" d="M72.4,13.89a3.49,3.49,0,0,1-2-.59,3,3,0,0,1-1.14-1.63h.19v2.07H68.05V1h1.4V7.09h-.21A2.89,2.89,0,0,1,70.38,5.5a3.48,3.48,0,0,1,2-.58,3.73,3.73,0,0,1,2,.54A3.62,3.62,0,0,1,75.76,7a5.47,5.47,0,0,1,.47,2.4,5.45,5.45,0,0,1-.48,2.39,3.64,3.64,0,0,1-1.34,1.55A3.68,3.68,0,0,1,72.4,13.89Zm-.29-1.14a2.51,2.51,0,0,0,2-.84,3.73,3.73,0,0,0,.74-2.5,3.77,3.77,0,0,0-.74-2.52,2.48,2.48,0,0,0-2-.85,2.45,2.45,0,0,0-2,.85,3.77,3.77,0,0,0-.74,2.52,3.72,3.72,0,0,0,.74,2.49A2.45,2.45,0,0,0,72.11,12.75Z"/><path class="cls-1" d="M81.4,13.89a4.34,4.34,0,0,1-3.22-1.18A4.47,4.47,0,0,1,77,9.42a5.05,5.05,0,0,1,.52-2.37A3.8,3.8,0,0,1,79,5.48a4,4,0,0,1,2.14-.56,3.69,3.69,0,0,1,2,.5,3.19,3.19,0,0,1,1.24,1.42A5.12,5.12,0,0,1,84.8,9v.51H78.08V8.66h5.8l-.29.23A3.41,3.41,0,0,0,83,6.73,2.23,2.23,0,0,0,81.12,6a2.43,2.43,0,0,0-2,.91,3.81,3.81,0,0,0-.73,2.44v.16a3.41,3.41,0,0,0,.81,2.46,3,3,0,0,0,2.25.83,4.38,4.38,0,0,0,1.46-.23,3.82,3.82,0,0,0,1.3-.77l.49,1a3.89,3.89,0,0,1-1.45.85A5.57,5.57,0,0,1,81.4,13.89Z"/><path class="cls-1" d="M86,13.74V7.16c0-.34,0-.7,0-1s0-.7-.07-1h1.34l.17,2.11-.24,0a2.89,2.89,0,0,1,.61-1.28,2.51,2.51,0,0,1,1-.75,3,3,0,0,1,1.22-.25h.46a1.54,1.54,0,0,1,.37.09l0,1.24a3.46,3.46,0,0,0-.47-.11,3.68,3.68,0,0,0-.49,0,2.44,2.44,0,0,0-1.33.37,2.34,2.34,0,0,0-.84.93,2.66,2.66,0,0,0-.29,1.21v5.11Z"/><path class="cls-1" d="M49.34,30.47V18.3h5a4.38,4.38,0,0,1,3,.91,3.14,3.14,0,0,1,1,2.52,3.41,3.41,0,0,1-.47,1.83,3,3,0,0,1-1.33,1.14,4.64,4.64,0,0,1-2,.4l.32-.22h.34a2.16,2.16,0,0,1,2.16,1.5l1.72,4.09H57.5l-1.65-4a1.61,1.61,0,0,0-.88-1,4,4,0,0,0-1.47-.23H50.77v5.26Zm1.43-6.39H54.1a3.26,3.26,0,0,0,2.1-.59,2.11,2.11,0,0,0,.72-1.72,2.07,2.07,0,0,0-.72-1.71,3.26,3.26,0,0,0-2.1-.59H50.77Z"/><path class="cls-1" d="M63.93,30.63a4.35,4.35,0,0,1-3.22-1.19,4.45,4.45,0,0,1-1.17-3.29,5.08,5.08,0,0,1,.52-2.37,3.8,3.8,0,0,1,1.45-1.57,4.09,4.09,0,0,1,2.14-.56,3.78,3.78,0,0,1,2,.5,3.19,3.19,0,0,1,1.24,1.42,5.12,5.12,0,0,1,.44,2.19v.52H60.61V25.4h5.8l-.29.22a3.41,3.41,0,0,0-.62-2.16,2.22,2.22,0,0,0-1.85-.77,2.45,2.45,0,0,0-2,.9A3.83,3.83,0,0,0,60.9,26v.16a3.41,3.41,0,0,0,.81,2.46,3,3,0,0,0,2.25.84,4.38,4.38,0,0,0,1.46-.24,4,4,0,0,0,1.3-.76l.49,1a3.84,3.84,0,0,1-1.45.85A5.33,5.33,0,0,1,63.93,30.63Z"/><path class="cls-1" d="M71.49,30.63a6.41,6.41,0,0,1-1.94-.29,4.1,4.1,0,0,1-1.48-.8l.48-1a4.37,4.37,0,0,0,1.39.75,5.09,5.09,0,0,0,1.56.24,2.82,2.82,0,0,0,1.57-.37,1.19,1.19,0,0,0,.52-1,1,1,0,0,0-.34-.8,2.47,2.47,0,0,0-1.09-.48l-1.61-.33a3.1,3.1,0,0,1-1.65-.82,2,2,0,0,1-.56-1.47,2.35,2.35,0,0,1,.4-1.34A2.62,2.62,0,0,1,69.9,22a4.25,4.25,0,0,1,1.78-.34,5.22,5.22,0,0,1,1.75.28,3.69,3.69,0,0,1,1.34.82l-.5,1A3.53,3.53,0,0,0,73.08,23a3.78,3.78,0,0,0-1.37-.25,2.43,2.43,0,0,0-1.53.4,1.32,1.32,0,0,0-.51,1.07A1.14,1.14,0,0,0,70,25a2.07,2.07,0,0,0,1,.47l1.6.33a3.66,3.66,0,0,1,1.75.8,1.89,1.89,0,0,1,.58,1.46,2.21,2.21,0,0,1-.43,1.36,2.73,2.73,0,0,1-1.2.88A4.71,4.71,0,0,1,71.49,30.63Z"/><path class="cls-1" d="M80.15,30.63a4.31,4.31,0,0,1-3.21-1.19,4.45,4.45,0,0,1-1.17-3.29,5.08,5.08,0,0,1,.52-2.37,3.73,3.73,0,0,1,1.45-1.57,4.09,4.09,0,0,1,2.14-.56,3.78,3.78,0,0,1,2,.5,3.25,3.25,0,0,1,1.24,1.42,5.13,5.13,0,0,1,.43,2.19v.52H76.84V25.4h5.8l-.3.22a3.35,3.35,0,0,0-.62-2.16,2.2,2.2,0,0,0-1.84-.77,2.44,2.44,0,0,0-2,.9A3.77,3.77,0,0,0,77.13,26v.16a3.45,3.45,0,0,0,.8,2.46,3,3,0,0,0,2.26.84,4.38,4.38,0,0,0,1.46-.24,4,4,0,0,0,1.3-.76l.48,1a3.8,3.8,0,0,1-1.44.85A5.35,5.35,0,0,1,80.15,30.63Z"/><path class="cls-1" d="M88.13,30.63a3.72,3.72,0,0,1-2-.55,3.61,3.61,0,0,1-1.34-1.54,5.53,5.53,0,0,1-.47-2.4,5.56,5.56,0,0,1,.47-2.42,3.55,3.55,0,0,1,1.34-1.54,3.8,3.8,0,0,1,2-.53,3.52,3.52,0,0,1,2,.59,2.84,2.84,0,0,1,1.13,1.62h-.21l.19-2.06h1.35c0,.34-.07.67-.1,1s0,.68,0,1v6.66h-1.4v-2h.19A2.76,2.76,0,0,1,90.13,30,3.49,3.49,0,0,1,88.13,30.63Zm.27-1.14a2.45,2.45,0,0,0,2-.86,3.72,3.72,0,0,0,.73-2.49,3.74,3.74,0,0,0-.73-2.51,2.67,2.67,0,0,0-3.93,0,3.74,3.74,0,0,0-.73,2.51,3.72,3.72,0,0,0,.73,2.49A2.47,2.47,0,0,0,88.4,29.49Z"/><path class="cls-1" d="M94.29,30.47V23.89q0-.51,0-1.05c0-.36,0-.7-.07-1h1.34l.18,2.11-.25,0a2.76,2.76,0,0,1,1.63-2,3,3,0,0,1,1.22-.25,3.17,3.17,0,0,1,.46,0,1.43,1.43,0,0,1,.37.08l0,1.25a2.5,2.5,0,0,0-.47-.12l-.49,0a2.37,2.37,0,0,0-1.32.36,2.3,2.3,0,0,0-.85.93,2.66,2.66,0,0,0-.28,1.21v5.11Z"/><path class="cls-1" d="M103.27,30.63a4.31,4.31,0,0,1-2.22-.56A3.62,3.62,0,0,1,99.6,28.5a5.32,5.32,0,0,1-.51-2.41,5.08,5.08,0,0,1,.52-2.41,3.49,3.49,0,0,1,1.46-1.51,4.42,4.42,0,0,1,2.2-.52,4.67,4.67,0,0,1,1.61.29,3.46,3.46,0,0,1,1.3.83l-.5,1a3.4,3.4,0,0,0-1.13-.74,3.25,3.25,0,0,0-1.2-.24,2.63,2.63,0,0,0-2.08.84,3.63,3.63,0,0,0-.75,2.47,3.74,3.74,0,0,0,.75,2.49,2.56,2.56,0,0,0,2.08.88,3.48,3.48,0,0,0,1.19-.23,3.06,3.06,0,0,0,1.14-.74l.5,1a3.4,3.4,0,0,1-1.32.84A4.48,4.48,0,0,1,103.27,30.63Z"/><path class="cls-1" d="M107.31,30.47V17.76h1.39v6h-.22a2.86,2.86,0,0,1,1.22-1.54,3.61,3.61,0,0,1,2-.53,3,3,0,0,1,2.32.84,3.67,3.67,0,0,1,.76,2.52v5.46h-1.4V25.1a2.66,2.66,0,0,0-.48-1.76,1.88,1.88,0,0,0-1.52-.55,2.58,2.58,0,0,0-1.93.74,2.7,2.7,0,0,0-.72,1.95v5Z"/><path class="cls-1" d="M54.64,47.36a6,6,0,0,1-3.11-.76,5.07,5.07,0,0,1-2-2.16,8.49,8.49,0,0,1,0-6.66,5,5,0,0,1,2-2.14,6,6,0,0,1,3.11-.76,6.43,6.43,0,0,1,2.31.39,5.17,5.17,0,0,1,1.78,1.16l-.54,1.14a6,6,0,0,0-1.64-1.06,4.81,4.81,0,0,0-1.9-.34,3.9,3.9,0,0,0-3.17,1.29,5.5,5.5,0,0,0-1.09,3.65,5.52,5.52,0,0,0,1.09,3.65,3.88,3.88,0,0,0,3.17,1.3,5,5,0,0,0,1.9-.33,6.09,6.09,0,0,0,1.64-1.08l.54,1.15A5.3,5.3,0,0,1,57,47,6.22,6.22,0,0,1,54.64,47.36Z"/><path class="cls-1" d="M63.1,47.36a4.19,4.19,0,0,1-2.19-.55,3.62,3.62,0,0,1-1.42-1.55,6,6,0,0,1,0-4.79,3.68,3.68,0,0,1,1.42-1.55,4.65,4.65,0,0,1,4.35,0,3.72,3.72,0,0,1,1.44,1.55,5.88,5.88,0,0,1,0,4.79,3.66,3.66,0,0,1-1.44,1.55A4.08,4.08,0,0,1,63.1,47.36Zm0-1.14a2.45,2.45,0,0,0,1.95-.86,3.77,3.77,0,0,0,.72-2.49A3.74,3.74,0,0,0,65,40.36a2.45,2.45,0,0,0-2-.86,2.42,2.42,0,0,0-1.95.86,3.8,3.8,0,0,0-.73,2.51,3.77,3.77,0,0,0,.73,2.49A2.45,2.45,0,0,0,63.1,46.22Z"/><path class="cls-1" d="M68.52,47.2V40.54c0-.32,0-.66,0-1s-.06-.68-.09-1h1.35l.17,1.89h-.21a3,3,0,0,1,1.22-1.52,3.57,3.57,0,0,1,1.94-.53,3.05,3.05,0,0,1,2.32.82A3.61,3.61,0,0,1,76,41.78V47.2h-1.4V41.87a2.66,2.66,0,0,0-.49-1.79,2,2,0,0,0-1.53-.56,2.55,2.55,0,0,0-1.92.74,2.78,2.78,0,0,0-.7,2v5Z"/><path class="cls-1" d="M78.22,47.2V39.62H76.53V38.54H78.6l-.38.36V37.45A3.16,3.16,0,0,1,79,35.2a2.83,2.83,0,0,1,2.12-.77,4.56,4.56,0,0,1,.72.06,2.54,2.54,0,0,1,.61.16v1.16a2.24,2.24,0,0,0-.51-.15,3.08,3.08,0,0,0-.61-.06,1.73,1.73,0,0,0-.91.22,1.28,1.28,0,0,0-.57.64,2.73,2.73,0,0,0-.19,1.11v1.26l-.23-.29H82v1.08H79.62V47.2Z"/><path class="cls-1" d="M86.35,47.36a4.31,4.31,0,0,1-3.21-1.19A4.44,4.44,0,0,1,82,42.89a5.25,5.25,0,0,1,.51-2.38,3.86,3.86,0,0,1,1.45-1.57,4.14,4.14,0,0,1,2.14-.56,3.82,3.82,0,0,1,2,.5,3.22,3.22,0,0,1,1.24,1.43,5,5,0,0,1,.43,2.18V43H83v-.88h5.8l-.3.22a3.35,3.35,0,0,0-.62-2.16,2.24,2.24,0,0,0-1.85-.77,2.46,2.46,0,0,0-2,.9,3.84,3.84,0,0,0-.72,2.45v.15a3.45,3.45,0,0,0,.8,2.46,3,3,0,0,0,2.25.84A4.34,4.34,0,0,0,87.84,46a4,4,0,0,0,1.31-.76l.48,1a3.8,3.8,0,0,1-1.44.85A5.39,5.39,0,0,1,86.35,47.36Z"/><path class="cls-1" d="M91,47.2V40.62c0-.34,0-.69,0-1s0-.7-.08-1h1.35l.17,2.1-.24,0a2.82,2.82,0,0,1,.6-1.28,2.87,2.87,0,0,1,1-.75A3,3,0,0,1,95,38.38l.45,0a1.51,1.51,0,0,1,.38.08l0,1.25a2.4,2.4,0,0,0-.48-.12l-.49,0a2.36,2.36,0,0,0-2.17,1.29,2.69,2.69,0,0,0-.28,1.21V47.2Z"/><path class="cls-1" d="M100.18,47.36A4.31,4.31,0,0,1,97,46.17a4.41,4.41,0,0,1-1.18-3.28,5.25,5.25,0,0,1,.52-2.38,3.86,3.86,0,0,1,1.45-1.57,4.11,4.11,0,0,1,2.14-.56,3.75,3.75,0,0,1,2,.5,3.24,3.24,0,0,1,1.25,1.43,5.2,5.2,0,0,1,.43,2.18V43H96.86v-.88h5.8l-.29.22a3.41,3.41,0,0,0-.62-2.16,2.25,2.25,0,0,0-1.85-.77,2.45,2.45,0,0,0-2,.9,3.84,3.84,0,0,0-.72,2.45v.15a3.41,3.41,0,0,0,.8,2.46,3,3,0,0,0,2.25.84,4.34,4.34,0,0,0,1.46-.24,3.85,3.85,0,0,0,1.3-.76l.49,1a3.8,3.8,0,0,1-1.44.85A5.43,5.43,0,0,1,100.18,47.36Z"/><path class="cls-1" d="M104.86,47.2V40.54c0-.32,0-.66,0-1l-.09-1h1.34l.18,1.89H106a3,3,0,0,1,1.22-1.52,3.57,3.57,0,0,1,1.94-.53,3.05,3.05,0,0,1,2.32.82,3.65,3.65,0,0,1,.79,2.58V47.2h-1.4V41.87a2.72,2.72,0,0,0-.49-1.79,2,2,0,0,0-1.53-.56,2.54,2.54,0,0,0-1.92.74,2.78,2.78,0,0,0-.71,2v5Z"/><path class="cls-1" d="M117.75,47.36a4.31,4.31,0,0,1-2.22-.56,3.68,3.68,0,0,1-1.45-1.57,5.32,5.32,0,0,1-.51-2.41,5.2,5.2,0,0,1,.52-2.41,3.55,3.55,0,0,1,1.46-1.51,4.45,4.45,0,0,1,2.2-.52,4.77,4.77,0,0,1,1.62.29,3.68,3.68,0,0,1,1.3.83l-.5,1a3.5,3.5,0,0,0-1.13-.74,3.29,3.29,0,0,0-1.2-.24,2.61,2.61,0,0,0-2.09.85,3.58,3.58,0,0,0-.74,2.46,3.74,3.74,0,0,0,.74,2.49,2.57,2.57,0,0,0,2.09.88A3.41,3.41,0,0,0,119,46a3.26,3.26,0,0,0,1.15-.75l.5,1a3.44,3.44,0,0,1-1.33.84A4.48,4.48,0,0,1,117.75,47.36Z"/><path class="cls-1" d="M125.47,47.36a4.31,4.31,0,0,1-3.21-1.19,4.41,4.41,0,0,1-1.18-3.28,5.25,5.25,0,0,1,.52-2.38,3.86,3.86,0,0,1,1.45-1.57,4.11,4.11,0,0,1,2.14-.56,3.75,3.75,0,0,1,2,.5,3.18,3.18,0,0,1,1.25,1.43,5.2,5.2,0,0,1,.43,2.18V43h-6.72v-.88H128l-.29.22a3.41,3.41,0,0,0-.62-2.16,2.25,2.25,0,0,0-1.85-.77,2.46,2.46,0,0,0-2,.9,3.84,3.84,0,0,0-.72,2.45v.15a3.41,3.41,0,0,0,.8,2.46,3,3,0,0,0,2.25.84A4.34,4.34,0,0,0,127,46a3.85,3.85,0,0,0,1.3-.76l.49,1a3.8,3.8,0,0,1-1.44.85A5.43,5.43,0,0,1,125.47,47.36Z"/><polygon class="cls-2" points="12.6 42.31 8.72 34.92 8.72 24.9 15.96 17.66 26.2 17.66 33.29 24.75 35.07 30.71 32.49 31.48 30.91 26.17 25.09 20.34 17.07 20.34 11.41 26.01 11.41 34.25 14.98 41.06 12.6 42.31"/><polygon class="cls-2" points="2.11 19.3 0 17.64 3.89 12.69 14.76 6.42 27.41 6.42 38.35 12.8 42.75 17.42 40.8 19.27 36.54 14.79 26.69 9.11 15.48 9.11 5.68 14.76 2.11 19.3"/><polygon class="cls-3" points="35.63 7.05 27.19 3.4 15 3.4 7.66 6.82 6.53 4.38 14.4 0.71 27.74 0.71 36.69 4.58 35.63 7.05"/><polygon class="cls-3" points="27.49 47.68 19.05 42.82 13.66 33.91 13.66 25.73 21.08 21.45 28.51 25.73 28.51 32.73 32.13 34.55 37.4 33.22 37.3 27.45 32.7 18.41 23.65 13.8 13.63 15.39 6.45 22.57 4.86 32.59 9.67 42.02 7.27 43.24 2.07 33.03 3.93 21.28 12.34 12.87 24.09 11.01 34.69 16.41 40.09 27.01 40.09 35.32 31.54 37.44 25.82 34.33 25.82 27.29 21.08 24.55 16.35 27.29 16.35 33.16 20.99 40.84 28.84 45.35 27.49 47.68"/><polygon class="cls-4" points="36.1 42.86 26.66 40.91 21.08 35.65 19.17 29.55 21.74 28.75 23.43 34.18 27.94 38.43 36.65 40.23 36.1 42.86"/><path class="cls-2" d="M138.13,45.35l-.72,2h-6v-.28a26.74,26.74,0,0,0,3.76-4,5,5,0,0,0,1.09-2.82,2.25,2.25,0,0,0-.6-1.61,1.87,1.87,0,0,0-1.43-.62,2.18,2.18,0,0,0-1.35.44,2.49,2.49,0,0,0-.89,1.3h-.28a3.48,3.48,0,0,1,1-2.15,2.7,2.7,0,0,1,2-.75,2.92,2.92,0,0,1,2.09.8,2.53,2.53,0,0,1,.84,1.89,3.71,3.71,0,0,1-.37,1.56,10.43,10.43,0,0,1-1.81,2.6c-1.26,1.37-2,2.19-2.36,2.48h2.68a7.4,7.4,0,0,0,1.15-.06,1.49,1.49,0,0,0,.59-.25,1.51,1.51,0,0,0,.46-.53Z"/><path class="cls-2" d="M145.5,37.07l-.59,1.29h-3.08l-.68,1.37a5.46,5.46,0,0,1,3.18,1.49,3.37,3.37,0,0,1,1,2.42,3.43,3.43,0,0,1-.33,1.5,4.24,4.24,0,0,1-.83,1.18,4.28,4.28,0,0,1-1.11.78,4.21,4.21,0,0,1-1.79.41,2.26,2.26,0,0,1-1.34-.31.88.88,0,0,1-.42-.69.52.52,0,0,1,.17-.38.61.61,0,0,1,.44-.16,1,1,0,0,1,.35.06,3.45,3.45,0,0,1,.5.31,2,2,0,0,0,1.15.39,2.1,2.1,0,0,0,1.55-.67,2.2,2.2,0,0,0,.67-1.63,2.87,2.87,0,0,0-.59-1.73,3.82,3.82,0,0,0-1.65-1.25,6.51,6.51,0,0,0-2.25-.39l2-4Z"/><g id="Layer_2-2" data-name="Layer 2"><g id="Layer_1-2-2" data-name="Layer 1-2"><path class="cls-5" d="M202.47,19.26V2.83a1.31,1.31,0,0,0-1.3-1.31h-8.73a.69.69,0,0,0-.25,0,1.28,1.28,0,0,0-1.05,1.13v19.9c0,.11,0,.23,0,.34a1.67,1.67,0,0,0,1.64,1.33h4.31a1,1,0,0,1,.91.91v1.58a10.74,10.74,0,0,1-1.93,6.17l-.52.73V25.94h-4.46v18a48.18,48.18,0,0,0,4.52-4.63c.64-.76,1.27-1.52,1.86-2.31l.28-.37a23.52,23.52,0,0,0,4.68-14,1.65,1.65,0,0,0-.92-1.49,1.75,1.75,0,0,0-.75-.17h-4.2a1,1,0,0,1-1-1h0v-14a1,1,0,0,1,1-1H197a1,1,0,0,1,1,1h0V19.26ZM189.35,22.9V2.57a.84.84,0,0,0,0-.12l-.06-.06h0a1.37,1.37,0,0,0-.8-.8l-.16,0a.78.78,0,0,0-.26,0H178V45.46a37.42,37.42,0,0,0,4.43,3V26.09h1.62a1,1,0,0,1,.83.82l0,.08V48.51a35.18,35.18,0,0,0,4.43-3V25.94c0-.43-.87-1.05-1.55-1.25l-1-.27,1-.28C188.48,24,189.35,23.33,189.35,22.9Zm-4.43-1.16a1,1,0,0,1-1,1h-1.45V4.85h1.45a1,1,0,0,1,1,1Zm-13.11,4.2V32.8h-.29c-.18,0-.36-.13-.66-.59l.19-.21-.24.15c-.08-.12-.16-.26-.24-.39l-.13,0v-.21l-.06,0v-.13a10.85,10.85,0,0,1-1-4.2V25.27s0-.09,0-.13V5.86c0-.05,0-.09,0-.13a1,1,0,0,1,1-.89h.43a1,1,0,0,1,.29,0l.13,0,.09.05a.05.05,0,0,1,0,0h0l.1.11v0a.86.86,0,0,1,.14.13l.06.11a.85.85,0,0,1,.06.17.8.8,0,0,1,.05.21V19.05h4.42V2.67a1.66,1.66,0,0,0-.11-.38l-.07-.14-.24-.29-.12-.09-.15-.1-.09,0-.12,0h-.07l-.09,0h-8.95a1.24,1.24,0,0,0-.27,0l-.11,0-.23.1a.21.21,0,0,0-.1.06.7.7,0,0,0-.17.13l-.08.08-.11.16h0l0,0-.26,0,.26.11,0,.07a.3.3,0,0,0,0,.08.37.37,0,0,0,0,.11,1,1,0,0,0,0,.12l0,.15V22.41a24.09,24.09,0,0,0,4.29,13.71l.21.32-.17.24.23-.17.07.1.54.68.21.29c.31.39.62.78.94,1.16.15.19.29.35.43.51l.07.08,0,.06.11.13c.19.22.39.42.57.64l.54.61c.36.4.75.79,1.13,1.19l.06,0c.18.19.38.37.56.55l.48.47.16.15.84.76v-18Z"/><g class="cls-6"><g class="cls-6"><path class="cls-5" d="M212.13,10.48a5.14,5.14,0,0,1,5.14-5A5.2,5.2,0,0,1,221,7.1l-1.51,1.35a3,3,0,0,0-2.25-1.09,3.12,3.12,0,0,0,0,6.24,3,3,0,0,0,2.25-1.08L221,13.87a5.28,5.28,0,0,1-3.76,1.62A5.16,5.16,0,0,1,212.13,10.48Z"/><path class="cls-5" d="M225.19,11.83l-3.78-6.18h2.42l2.4,4.23,2.51-4.23h2.32l-3.77,6.18v3.49h-2.1Z"/><path class="cls-5" d="M232.16,5.65h4.9c1.73,0,2.93,1,2.93,2.42a2.33,2.33,0,0,1-1.36,2.15,2.72,2.72,0,0,1,1.78,2.48c0,1.55-1.33,2.62-3.17,2.62h-5.08Zm4.38,3.9c.77,0,1.32-.45,1.32-1.07s-.55-1.06-1.32-1.06h-2.31V9.55Zm.32,4a1.27,1.27,0,0,0,1.42-1.18,1.27,1.27,0,0,0-1.42-1.18h-2.63v2.36Z"/><path class="cls-5" d="M244,7.52V9.45h4.85v1.87H244v2.13h5.36v1.87h-7.45V5.65h7.45V7.52Z"/><path class="cls-5" d="M256.75,15.32l-2.21-3.14H253v3.14h-2.07V5.65h4.35a3.35,3.35,0,0,1,3.65,3.26,3.15,3.15,0,0,1-2.2,3l2.38,3.38Zm-3.75-5h2.06c1,0,1.73-.54,1.73-1.37s-.7-1.36-1.73-1.36H253Z"/><path class="cls-5" d="M259.84,13.88l1.2-1.42a4.75,4.75,0,0,0,3.18,1.27c1,0,1.58-.48,1.58-1.09s-.57-.9-2-1.24c-2.05-.46-3.5-1-3.5-2.91s1.47-3,3.58-3a5.57,5.57,0,0,1,3.79,1.34l-1.09,1.49a4.48,4.48,0,0,0-2.76-1.07c-.88,0-1.42.46-1.42,1s.58.93,2.07,1.27c2.08.46,3.46,1.08,3.46,2.87s-1.39,3.07-3.75,3.07A6.24,6.24,0,0,1,259.84,13.88Z"/><path class="cls-5" d="M271.47,7.52V9.45h4.85v1.87h-4.85v2.13h5.36v1.87h-7.45V5.65h7.45V7.52Z"/><path class="cls-5" d="M278,10.48a5.14,5.14,0,0,1,8.89-3.38l-1.5,1.35a3,3,0,0,0-2.26-1.09,3.12,3.12,0,0,0,0,6.24,3.06,3.06,0,0,0,2.26-1.08l1.5,1.35a5.24,5.24,0,0,1-3.76,1.62A5.15,5.15,0,0,1,278,10.48Z"/><path class="cls-5" d="M288.19,11.14V5.65h2.07v5.4a2.31,2.31,0,1,0,4.6,0V5.65h2.08v5.49a4.38,4.38,0,0,1-8.75,0Z"/><path class="cls-5" d="M304.64,15.32l-2.21-3.14H300.9v3.14h-2.07V5.65h4.35a3.35,3.35,0,0,1,3.64,3.26,3.15,3.15,0,0,1-2.19,3L307,15.32Zm-3.74-5H303c1,0,1.73-.54,1.73-1.37S304,7.55,303,7.55H300.9Z"/><path class="cls-5" d="M308.4,5.65h2.08v9.67H308.4Z"/><path class="cls-5" d="M314.91,7.52h-3V5.65H320V7.52h-3v7.8h-2.09Z"/><path class="cls-5" d="M324.29,11.83,320.5,5.65h2.42l2.41,4.23,2.5-4.23h2.33l-3.78,6.18v3.49h-2.09Z"/></g><g class="cls-6"><path class="cls-5" d="M218.33,30.12,216.12,27h-1.54v3.14h-2.07V20.45h4.35a3.35,3.35,0,0,1,3.65,3.26,3.16,3.16,0,0,1-2.2,3l2.38,3.38Zm-3.75-5h2.06c1,0,1.73-.54,1.73-1.37s-.71-1.36-1.73-1.36h-2.06Z"/><path class="cls-5" d="M224.14,22.32v1.93H229v1.87h-4.85v2.12h5.36v1.88h-7.45V20.45h7.45v1.87Z"/><path class="cls-5" d="M230.44,28.68l1.2-1.42a4.75,4.75,0,0,0,3.18,1.27c1,0,1.58-.48,1.58-1.09s-.57-.9-2-1.24c-2.05-.46-3.5-1-3.5-2.91s1.47-3,3.58-3a5.61,5.61,0,0,1,3.79,1.33l-1.09,1.5A4.48,4.48,0,0,0,234.38,22c-.88,0-1.42.46-1.42,1s.58.93,2.07,1.26c2.08.47,3.46,1.09,3.46,2.88s-1.39,3.07-3.75,3.07A6.24,6.24,0,0,1,230.44,28.68Z"/><path class="cls-5" d="M242.07,22.32v1.93h4.85v1.87h-4.85v2.12h5.36v1.88H240V20.45h7.45v1.87Z"/><path class="cls-5" d="M255.48,28.6h-4.31l-.62,1.52h-2.32l3.94-9.67h2.32l3.95,9.67H256.1Zm-.72-1.76-1.43-3.54-1.44,3.54Z"/><path class="cls-5" d="M265.39,30.12,263.18,27h-1.54v3.14h-2.07V20.45h4.35a3.35,3.35,0,0,1,3.65,3.26,3.15,3.15,0,0,1-2.2,3l2.38,3.38Zm-3.75-5h2.06c1,0,1.73-.54,1.73-1.37s-.7-1.36-1.73-1.36h-2.06Z"/><path class="cls-5" d="M268.74,25.27a5.14,5.14,0,0,1,8.89-3.37l-1.5,1.35a3,3,0,0,0-2.26-1.09,3.12,3.12,0,0,0,0,6.24,3.06,3.06,0,0,0,2.26-1.08l1.5,1.35a5.24,5.24,0,0,1-3.76,1.62A5.15,5.15,0,0,1,268.74,25.27Z"/><path class="cls-5" d="M287.46,20.45v9.67h-2.07v-4H281v4h-2.07V20.45H281v3.8h4.41v-3.8Z"/></g><g class="cls-6"><path class="cls-5" d="M211.88,43.48l1.19-1.42a4.79,4.79,0,0,0,3.19,1.27c1,0,1.57-.48,1.57-1.09s-.56-.9-2-1.24c-2-.46-3.49-1-3.49-2.91s1.46-3,3.58-3a5.59,5.59,0,0,1,3.78,1.33l-1.08,1.5a4.48,4.48,0,0,0-2.76-1.07c-.89,0-1.42.46-1.42,1s.58.93,2.07,1.27c2.08.46,3.46,1.08,3.46,2.87s-1.39,3.07-3.76,3.07A6.21,6.21,0,0,1,211.88,43.48Z"/><path class="cls-5" d="M221,40.07a5.14,5.14,0,1,1,5.14,5A5.14,5.14,0,0,1,221,40.07Zm8.15,0a3,3,0,1,0-3,3.13A3.11,3.11,0,0,0,229.19,40.07Z"/><path class="cls-5" d="M232.47,40.07a5.14,5.14,0,0,1,5.14-5,5.2,5.2,0,0,1,3.76,1.62l-1.51,1.35A3,3,0,0,0,237.61,37a3.12,3.12,0,0,0,0,6.24,3,3,0,0,0,2.25-1.08l1.51,1.35a5.28,5.28,0,0,1-3.76,1.62A5.15,5.15,0,0,1,232.47,40.07Z"/><path class="cls-5" d="M242.67,35.25h2.09v9.67h-2.09Z"/><path class="cls-5" d="M248.77,37.12v1.93h4.85v1.87h-4.85V43h5.36v1.88h-7.45V35.25h7.45v1.87Z"/><path class="cls-5" d="M258.21,37.12h-3V35.25h8.11v1.87h-3v7.8h-2.08Z"/><path class="cls-5" d="M267.58,41.43l-3.78-6.18h2.42l2.4,4.23,2.51-4.23h2.32l-3.77,6.18v3.49h-2.1Z"/></g></g></g></g><rect x="154.16" width="2.52" height="53.37"/><path class="cls-5" d="M164.93,60.41l.75-3.41h.23c0,.33,0,.61,0,.82a2,2,0,0,0,.59,1.51,2.09,2.09,0,0,0,1.54.58,1.68,1.68,0,0,0,1.35-.54,1.94,1.94,0,0,0,.46-1.26,1.68,1.68,0,0,0-.21-.83,12.24,12.24,0,0,0-1.7-2,6.46,6.46,0,0,1-.86-1,2.33,2.33,0,0,1-.31-1.15,2.2,2.2,0,0,1,.72-1.64,2.58,2.58,0,0,1,1.84-.68,3.23,3.23,0,0,1,.71.07,5.65,5.65,0,0,1,.77.27l.43.17a.68.68,0,0,0,.21,0,.57.57,0,0,0,.34-.1,1.59,1.59,0,0,0,.33-.43h.26l-.71,3h-.23c0-.27,0-.49,0-.65a1.76,1.76,0,0,0-.54-1.34,2,2,0,0,0-1.43-.52,1.57,1.57,0,0,0-1.14.41,1.27,1.27,0,0,0-.44,1,1.57,1.57,0,0,0,.28.9,9.9,9.9,0,0,0,1.29,1.4,7.43,7.43,0,0,1,1.31,1.52,2.36,2.36,0,0,1,.3,1.16,2.7,2.7,0,0,1-.37,1.35,2.58,2.58,0,0,1-1.06,1,3.21,3.21,0,0,1-1.51.36,3.52,3.52,0,0,1-.75-.08,8.78,8.78,0,0,1-1.12-.36,1.33,1.33,0,0,0-.44-.11c-.27,0-.48.18-.63.55Z"/><path class="cls-5" d="M173.4,57.65a4.18,4.18,0,0,0,0,.56,1.39,1.39,0,0,0,.42,1,1.43,1.43,0,0,0,1,.42,2.31,2.31,0,0,0,.93-.19,7.84,7.84,0,0,0,1.34-.89l.14.2a4.53,4.53,0,0,1-3.06,1.59,1.8,1.8,0,0,1-1.48-.62,2.13,2.13,0,0,1-.5-1.38,4,4,0,0,1,.62-2.06,4.65,4.65,0,0,1,1.56-1.64,3.61,3.61,0,0,1,1.93-.58,1.61,1.61,0,0,1,1.07.29.86.86,0,0,1,.34.69,1.61,1.61,0,0,1-.45,1.07,4,4,0,0,1-1.73,1.08A9.51,9.51,0,0,1,173.4,57.65Zm0-.33a5.62,5.62,0,0,0,1.63-.4,3.22,3.22,0,0,0,1.25-.89,1.56,1.56,0,0,0,.41-1,.62.62,0,0,0-.18-.46.69.69,0,0,0-.51-.17,2.2,2.2,0,0,0-1.46.73A4.35,4.35,0,0,0,173.45,57.32Z"/><path class="cls-5" d="M183.25,58.72A5.08,5.08,0,0,1,181.83,60a3.06,3.06,0,0,1-1.52.4,1.87,1.87,0,0,1-2-2,4,4,0,0,1,.58-2,4.65,4.65,0,0,1,1.55-1.63,3.6,3.6,0,0,1,1.92-.62,1.64,1.64,0,0,1,1.1.31.94.94,0,0,1,.36.75,1.07,1.07,0,0,1-.25.72.6.6,0,0,1-.47.23.5.5,0,0,1-.35-.14.46.46,0,0,1-.14-.34.59.59,0,0,1,0-.23,1.08,1.08,0,0,1,.21-.26,2.26,2.26,0,0,0,.2-.22.4.4,0,0,0,0-.15.27.27,0,0,0-.13-.23,1,1,0,0,0-.55-.14,2.24,2.24,0,0,0-1.31.47A3.66,3.66,0,0,0,180,56.17a4.43,4.43,0,0,0-.56,2.09,1.46,1.46,0,0,0,.4,1.09,1.39,1.39,0,0,0,1.06.4,2.28,2.28,0,0,0,1-.26,4.24,4.24,0,0,0,1.15-.94Z"/><path class="cls-5" d="M190.56,54.24l-1.18,4a6.28,6.28,0,0,0-.26,1.13.26.26,0,0,0,0,.18.11.11,0,0,0,.11.06.45.45,0,0,0,.26-.1,7.61,7.61,0,0,0,.7-.84l.2.16a4.28,4.28,0,0,1-1.1,1.24,1.24,1.24,0,0,1-.71.26.52.52,0,0,1-.56-.54,3.31,3.31,0,0,1,.08-.6c.08-.34.28-1.06.62-2.18a13.3,13.3,0,0,1-1.92,2.6,2.23,2.23,0,0,1-1.44.72.71.71,0,0,1-.53-.22.75.75,0,0,1-.21-.55A6.75,6.75,0,0,1,185,58l.59-2.09a4.69,4.69,0,0,0,.22-.93.18.18,0,0,0-.06-.14.17.17,0,0,0-.12-.06.56.56,0,0,0-.29.1,5.67,5.67,0,0,0-.64.75l-.21-.15a4,4,0,0,1,1.07-1.15,1.43,1.43,0,0,1,.8-.29.55.55,0,0,1,.57.57,5.74,5.74,0,0,1-.27,1.3L186,58.13a6.28,6.28,0,0,0-.26,1.13.26.26,0,0,0,.09.21.31.31,0,0,0,.22.08,1.21,1.21,0,0,0,.58-.23,4.51,4.51,0,0,0,1-1,12.49,12.49,0,0,0,1-1.44,10.57,10.57,0,0,0,.82-2.14l.15-.51Z"/><path class="cls-5" d="M191.69,54.46l2.33-.38-1,3.28a10.85,10.85,0,0,1,2.15-2.82,1.54,1.54,0,0,1,.89-.46.45.45,0,0,1,.35.13.5.5,0,0,1,.13.38,1.72,1.72,0,0,1-.23.85.5.5,0,0,1-.47.31.4.4,0,0,1-.26-.1.5.5,0,0,1-.14-.31c0-.09,0-.15-.06-.17a.18.18,0,0,0-.13-.06.43.43,0,0,0-.22.06,2.63,2.63,0,0,0-.53.52,16.82,16.82,0,0,0-1.22,1.72,4.72,4.72,0,0,0-.48,1c-.19.51-.3.82-.33.92l-.21.86h-1L192.5,56a4.15,4.15,0,0,0,.22-1,.3.3,0,0,0-.1-.21.57.57,0,0,0-.36-.1,3.86,3.86,0,0,0-.52.06Z"/><path class="cls-5" d="M199.54,54.08l-1.34,4.74a4,4,0,0,0-.14.57.29.29,0,0,0,.07.18.2.2,0,0,0,.15.06.4.4,0,0,0,.24-.1,4,4,0,0,0,.78-.87l.24.16A4.9,4.9,0,0,1,198.46,60a1.46,1.46,0,0,1-.88.36.61.61,0,0,1-.45-.17.54.54,0,0,1-.18-.41,3.51,3.51,0,0,1,.17-.83l.88-3a5,5,0,0,0,.21-.94.3.3,0,0,0-.1-.24.44.44,0,0,0-.29-.09,4.55,4.55,0,0,0-.61.07v-.26Zm-.09-2.69a.68.68,0,0,1,.68.68.69.69,0,0,1-.2.48.67.67,0,0,1-.48.2.68.68,0,0,1-.68-.68.68.68,0,0,1,.68-.68Z"/><path class="cls-5" d="M203.8,52.4l-.53,1.84h1.06l-.11.43h-1.06l-1.16,4a3.77,3.77,0,0,0-.19.84.29.29,0,0,0,.05.17.18.18,0,0,0,.13.06.83.83,0,0,0,.45-.23,7.4,7.4,0,0,0,.72-.84l.23.17a4.83,4.83,0,0,1-1.18,1.28,1.37,1.37,0,0,1-.77.26.63.63,0,0,1-.48-.19.61.61,0,0,1-.19-.47,4.26,4.26,0,0,1,.22-1.12l1.12-3.91h-1l.07-.27a3.19,3.19,0,0,0,1.24-.6,5.84,5.84,0,0,0,1.1-1.4Z"/><path class="cls-5" d="M210.54,54.08l-1.31,4.58-.15.62a.36.36,0,0,0,0,.14.29.29,0,0,0,.06.19.21.21,0,0,0,.14.07.46.46,0,0,0,.23-.11,3.69,3.69,0,0,0,.7-.81l.23.16a4.26,4.26,0,0,1-1,1.07,1.6,1.6,0,0,1-.91.37.6.6,0,0,1-.44-.15.59.59,0,0,1-.14-.42,3.43,3.43,0,0,1,.15-.87l.14-.51A6.64,6.64,0,0,1,206.63,60a2,2,0,0,1-1,.33,1.1,1.1,0,0,1-.85-.41,1.65,1.65,0,0,1-.36-1.13,4.77,4.77,0,0,1,.65-2.26,5.39,5.39,0,0,1,1.64-1.91,2.51,2.51,0,0,1,1.46-.57,1.09,1.09,0,0,1,.69.21,1.46,1.46,0,0,1,.42.72l.24-.77Zm-2.4.35a1.45,1.45,0,0,0-.92.4A5.1,5.1,0,0,0,206,56.54a4.78,4.78,0,0,0-.54,2,1.1,1.1,0,0,0,.23.73.71.71,0,0,0,.53.26,2.29,2.29,0,0,0,1.6-1.08,4.75,4.75,0,0,0,1.16-3,1.29,1.29,0,0,0-.22-.83A.75.75,0,0,0,208.14,54.43Z"/><path class="cls-5" d="M216,54.08l-.41,2.07h-.25a2.11,2.11,0,0,0-.39-1.32,1.1,1.1,0,0,0-.87-.41.93.93,0,0,0-.66.23.73.73,0,0,0-.25.56.87.87,0,0,0,.1.42,2.44,2.44,0,0,0,.43.57,8.16,8.16,0,0,1,1.13,1.45,2,2,0,0,1,.26.92,1.67,1.67,0,0,1-.58,1.24,2.07,2.07,0,0,1-1.48.55,3.39,3.39,0,0,1-1.12-.23,1,1,0,0,0-.35-.08.5.5,0,0,0-.46.31h-.25l.41-2.19h.25a2.29,2.29,0,0,0,.43,1.45,1.37,1.37,0,0,0,1,.43,1.14,1.14,0,0,0,.82-.29.94.94,0,0,0,.3-.71,1.22,1.22,0,0,0-.11-.5,5.64,5.64,0,0,0-.79-1.12,5.88,5.88,0,0,1-.78-1.07,1.58,1.58,0,0,1-.17-.72,1.49,1.49,0,0,1,.47-1.11,1.73,1.73,0,0,1,1.23-.45,2.21,2.21,0,0,1,.39,0l.45.15a1.7,1.7,0,0,0,.46.14.6.6,0,0,0,.49-.32Z"/><path class="cls-5" d="M222,51h3.61a3.12,3.12,0,0,1,2.12.61,1.92,1.92,0,0,1,.71,1.49,2.32,2.32,0,0,1-.45,1.35,3.17,3.17,0,0,1-1.32,1.07,4.5,4.5,0,0,1-1.9.41,7.52,7.52,0,0,1-1.62-.23l-.73,2.5a5.77,5.77,0,0,0-.26,1.17.44.44,0,0,0,.19.36,1.77,1.77,0,0,0,.87.19l-.07.25h-3.64l.07-.25a1.57,1.57,0,0,0,1-.25,3.28,3.28,0,0,0,.6-1.36l1.52-5.22a5.88,5.88,0,0,0,.27-1.26.49.49,0,0,0-.19-.39,1.59,1.59,0,0,0-.85-.19Zm1.27,4.27a5.31,5.31,0,0,0,1.23.2,2.87,2.87,0,0,0,1.34-.31,2.12,2.12,0,0,0,.94-.91,2.55,2.55,0,0,0,.35-1.26,1.44,1.44,0,0,0-.42-1.09,1.82,1.82,0,0,0-1.27-.39,6.27,6.27,0,0,0-1.12.11Z"/><path class="cls-5" d="M229.92,57.65a4.18,4.18,0,0,0,0,.56,1.39,1.39,0,0,0,.42,1,1.43,1.43,0,0,0,1,.42,2.31,2.31,0,0,0,.93-.19,7.84,7.84,0,0,0,1.34-.89l.14.2a4.53,4.53,0,0,1-3.05,1.59,1.81,1.81,0,0,1-1.49-.62,2.13,2.13,0,0,1-.5-1.38,4.08,4.08,0,0,1,.62-2.06,4.73,4.73,0,0,1,1.56-1.64,3.61,3.61,0,0,1,1.93-.58,1.61,1.61,0,0,1,1.07.29.86.86,0,0,1,.34.69,1.61,1.61,0,0,1-.45,1.07,4,4,0,0,1-1.73,1.08A9.51,9.51,0,0,1,229.92,57.65Zm.05-.33a5.62,5.62,0,0,0,1.63-.4,3.14,3.14,0,0,0,1.25-.89,1.56,1.56,0,0,0,.41-1,.65.65,0,0,0-.17-.46.7.7,0,0,0-.52-.17,2.22,2.22,0,0,0-1.46.73A4.51,4.51,0,0,0,230,57.32Z"/><path class="cls-5" d="M235.14,54.46l2.34-.38-1,3.28a11.07,11.07,0,0,1,2.15-2.82,1.56,1.56,0,0,1,.89-.46.48.48,0,0,1,.36.13.54.54,0,0,1,.12.38,1.62,1.62,0,0,1-.23.85.49.49,0,0,1-.46.31.43.43,0,0,1-.27-.1.56.56,0,0,1-.14-.31c0-.09,0-.15-.06-.17a.16.16,0,0,0-.13-.06.39.39,0,0,0-.21.06,2.36,2.36,0,0,0-.54.52,15.46,15.46,0,0,0-1.21,1.72,4.74,4.74,0,0,0-.49,1c-.19.51-.3.82-.33.92l-.21.86h-1L236,56a4.15,4.15,0,0,0,.22-1,.26.26,0,0,0-.1-.21.57.57,0,0,0-.36-.1,4,4,0,0,0-.52.06Z"/><path class="cls-5" d="M246.68,60l-.07.25h-3.77l.09-.25a2.43,2.43,0,0,0,.75-.1.89.89,0,0,0,.44-.32,4.18,4.18,0,0,0,.46-1.13l1.6-5.53a4.32,4.32,0,0,0,.2-1,.49.49,0,0,0-.09-.3.62.62,0,0,0-.27-.19,2.62,2.62,0,0,0-.7-.06l.09-.25H249l-.08.25a1.52,1.52,0,0,0-.64.09,1,1,0,0,0-.46.39,5.33,5.33,0,0,0-.41,1.11l-1.59,5.53a5.52,5.52,0,0,0-.22,1,.48.48,0,0,0,.09.29.5.5,0,0,0,.27.18A3.93,3.93,0,0,0,246.68,60Z"/><path class="cls-5" d="M250.94,54.08l-.9,3.07A14.68,14.68,0,0,1,252,54.67a2,2,0,0,1,1.3-.59.76.76,0,0,1,.56.22.81.81,0,0,1,.21.58,4.08,4.08,0,0,1-.19,1.08L253,58.81a3.94,3.94,0,0,0-.14.6.23.23,0,0,0,.06.16.14.14,0,0,0,.11.06.32.32,0,0,0,.2-.08,4.35,4.35,0,0,0,.78-.87l.21.13a4.84,4.84,0,0,1-1.19,1.28,1.26,1.26,0,0,1-.7.27.54.54,0,0,1-.4-.15.58.58,0,0,1-.15-.41,4.92,4.92,0,0,1,.23-1.12l.78-2.72a2.94,2.94,0,0,0,.15-.79.33.33,0,0,0-.08-.22.35.35,0,0,0-.22-.08.85.85,0,0,0-.45.16,4.17,4.17,0,0,0-1.05,1A14.85,14.85,0,0,0,250,57.82a6.41,6.41,0,0,0-.52,1.26l-.34,1.12h-1L249.37,56a5,5,0,0,0,.22-.92.37.37,0,0,0-.12-.26.44.44,0,0,0-.29-.11l-.29,0-.25,0,0-.24Z"/><path class="cls-5" d="M255.1,54.5l2-.42a6.1,6.1,0,0,1,.34,1,15.84,15.84,0,0,1,.3,1.81c0,.35.08,1.1.15,2.23.56-.62.9-1,1-1.15.6-.81.94-1.28,1-1.42a3,3,0,0,0,.31-.63,1.18,1.18,0,0,0,.08-.39c0-.12-.11-.25-.32-.4a.66.66,0,0,1-.31-.52.53.53,0,0,1,.17-.38.54.54,0,0,1,.41-.17.67.67,0,0,1,.5.23.85.85,0,0,1,.22.58,2.08,2.08,0,0,1-.11.66,6.47,6.47,0,0,1-.66,1.26,19.55,19.55,0,0,1-1.55,2c-.09.1-.59.63-1.5,1.57h-.25a17.62,17.62,0,0,0-.67-5.34.58.58,0,0,0-.56-.35,2.58,2.58,0,0,0-.48.06Z"/><path class="cls-5" d="M262.6,57.65a3.11,3.11,0,0,0-.05.56,1.39,1.39,0,0,0,.42,1,1.43,1.43,0,0,0,1,.42,2.36,2.36,0,0,0,.94-.19,7.86,7.86,0,0,0,1.33-.89l.14.2a4.52,4.52,0,0,1-3.05,1.59,1.81,1.81,0,0,1-1.49-.62,2.19,2.19,0,0,1-.5-1.38A4.08,4.08,0,0,1,262,56.3a4.83,4.83,0,0,1,1.56-1.64,3.62,3.62,0,0,1,1.94-.58,1.6,1.6,0,0,1,1.06.29.86.86,0,0,1,.34.69,1.64,1.64,0,0,1-.44,1.07,4.08,4.08,0,0,1-1.73,1.08A9.77,9.77,0,0,1,262.6,57.65Zm0-.33a5.62,5.62,0,0,0,1.63-.4,3.14,3.14,0,0,0,1.25-.89,1.58,1.58,0,0,0,.42-1,.62.62,0,0,0-.18-.46.69.69,0,0,0-.51-.17,2.22,2.22,0,0,0-1.47.73A4.51,4.51,0,0,0,262.64,57.32Z"/><path class="cls-5" d="M272.11,54.08l-.41,2.07h-.25a2.18,2.18,0,0,0-.38-1.32,1.13,1.13,0,0,0-.88-.41,1,1,0,0,0-.66.23.73.73,0,0,0-.25.56.87.87,0,0,0,.1.42,2.78,2.78,0,0,0,.43.57,7.7,7.7,0,0,1,1.13,1.45,1.87,1.87,0,0,1,.26.92,1.64,1.64,0,0,1-.58,1.24,2.07,2.07,0,0,1-1.48.55,3.44,3.44,0,0,1-1.12-.23,1,1,0,0,0-.35-.08.5.5,0,0,0-.46.31H267l.42-2.19h.25a2.23,2.23,0,0,0,.42,1.45,1.38,1.38,0,0,0,1.06.43,1.13,1.13,0,0,0,.81-.29.94.94,0,0,0,.3-.71,1.08,1.08,0,0,0-.11-.5,5.64,5.64,0,0,0-.79-1.12,7.09,7.09,0,0,1-.78-1.07,1.72,1.72,0,0,1-.17-.72,1.46,1.46,0,0,1,.48-1.11,1.69,1.69,0,0,1,1.22-.45,2.41,2.41,0,0,1,.4,0l.44.15a1.7,1.7,0,0,0,.46.14.58.58,0,0,0,.49-.32Z"/><path class="cls-5" d="M276.08,52.4l-.53,1.84h1.06l-.12.43h-1.05l-1.16,4a3.77,3.77,0,0,0-.19.84.29.29,0,0,0,.05.17.18.18,0,0,0,.13.06.86.86,0,0,0,.45-.23,7.4,7.4,0,0,0,.72-.84l.22.17a4.66,4.66,0,0,1-1.17,1.28,1.39,1.39,0,0,1-.77.26.62.62,0,0,1-.48-.19.61.61,0,0,1-.19-.47,4.6,4.6,0,0,1,.21-1.12l1.13-3.91h-1l.07-.27a3.19,3.19,0,0,0,1.24-.6,5.84,5.84,0,0,0,1.1-1.4Z"/><path class="cls-5" d="M279.51,54.08l-1.34,4.74a3.34,3.34,0,0,0-.13.57.28.28,0,0,0,.06.18.2.2,0,0,0,.15.06.45.45,0,0,0,.25-.1,4.27,4.27,0,0,0,.77-.87l.24.16A4.9,4.9,0,0,1,278.43,60a1.46,1.46,0,0,1-.88.36.61.61,0,0,1-.45-.17.54.54,0,0,1-.18-.41,3.51,3.51,0,0,1,.17-.83l.88-3a5.43,5.43,0,0,0,.22-.94.3.3,0,0,0-.11-.24.44.44,0,0,0-.29-.09,4.55,4.55,0,0,0-.61.07v-.26Zm-.09-2.69a.68.68,0,0,1,.68.68.69.69,0,0,1-.2.48.66.66,0,0,1-.95,0,.69.69,0,0,1,0-1A.66.66,0,0,1,279.42,51.39Z"/><path class="cls-5" d="M287.39,54.5l-.2.7h-1.13a1.94,1.94,0,0,1,.13.68,2.08,2.08,0,0,1-.76,1.59,3.25,3.25,0,0,1-2.09.77,3.19,3.19,0,0,0-1.08.52.28.28,0,0,0-.13.22.35.35,0,0,0,.12.25,1.55,1.55,0,0,0,.61.22l1.31.31a3.18,3.18,0,0,1,1.44.6,1.18,1.18,0,0,1,.35.83,1.48,1.48,0,0,1-.41,1,2.6,2.6,0,0,1-1.2.72,5.3,5.3,0,0,1-1.74.26,5.13,5.13,0,0,1-1.52-.2,2.09,2.09,0,0,1-1-.53,1.06,1.06,0,0,1-.3-.7,1.11,1.11,0,0,1,.19-.6,1.63,1.63,0,0,1,.49-.52c.12-.09.46-.29,1-.61a.67.67,0,0,1-.31-.53.9.9,0,0,1,.27-.58,3.68,3.68,0,0,1,1.16-.67,2,2,0,0,1-1.18-.62,1.56,1.56,0,0,1-.43-1.07,2.28,2.28,0,0,1,.84-1.72,3.24,3.24,0,0,1,2.24-.75,2.72,2.72,0,0,1,.83.1,2.08,2.08,0,0,1,.63.32Zm-5.59,5.7a2,2,0,0,0-.83.64,1.38,1.38,0,0,0-.28.77.89.89,0,0,0,.41.74,3,3,0,0,0,1.7.41,3.74,3.74,0,0,0,1.65-.32c.46-.22.69-.5.69-.85a.67.67,0,0,0-.25-.5,2.13,2.13,0,0,0-1-.39C283.64,60.65,282.94,60.48,281.8,60.2ZM285,55.56a1.16,1.16,0,0,0-.3-.85,1,1,0,0,0-.79-.31,1.46,1.46,0,0,0-1.26.76,2.92,2.92,0,0,0-.5,1.6,1.18,1.18,0,0,0,.32.85,1,1,0,0,0,.77.33,1.33,1.33,0,0,0,.69-.19,1.63,1.63,0,0,0,.57-.54,3,3,0,0,0,.36-.88A3.72,3.72,0,0,0,285,55.56Z"/><path class="cls-5" d="M293.59,54.08l-1.32,4.58-.15.62a.78.78,0,0,0,0,.14.29.29,0,0,0,.07.19.19.19,0,0,0,.14.07.46.46,0,0,0,.23-.11,4,4,0,0,0,.7-.81l.23.16a4.26,4.26,0,0,1-1,1.07,1.6,1.6,0,0,1-.91.37.59.59,0,0,1-.44-.15.55.55,0,0,1-.14-.42,3.83,3.83,0,0,1,.14-.87l.15-.51A6.82,6.82,0,0,1,289.68,60a2,2,0,0,1-1.05.33,1.1,1.1,0,0,1-.85-.41,1.65,1.65,0,0,1-.36-1.13,4.75,4.75,0,0,1,.64-2.26,5.6,5.6,0,0,1,1.64-1.91,2.53,2.53,0,0,1,1.47-.57,1.11,1.11,0,0,1,.69.21,1.39,1.39,0,0,1,.41.72l.25-.77Zm-2.41.35a1.45,1.45,0,0,0-.91.4A5.1,5.1,0,0,0,289,56.54a4.78,4.78,0,0,0-.54,2,1.1,1.1,0,0,0,.23.73.7.7,0,0,0,.53.26c.49,0,1-.36,1.6-1.08a4.75,4.75,0,0,0,1.16-3,1.23,1.23,0,0,0-.23-.83A.74.74,0,0,0,291.18,54.43Z"/><path class="cls-5" d="M297.61,52.4l-.52,1.84h1.06l-.12.43h-1l-1.16,4a3.77,3.77,0,0,0-.19.84.23.23,0,0,0,.05.17.18.18,0,0,0,.13.06.81.81,0,0,0,.44-.23,8.2,8.2,0,0,0,.73-.84l.22.17A4.67,4.67,0,0,1,296,60.1a1.34,1.34,0,0,1-.76.26.66.66,0,0,1-.49-.19.65.65,0,0,1-.19-.47,4.73,4.73,0,0,1,.22-1.12l1.13-3.91h-1l.07-.27a3.22,3.22,0,0,0,1.23-.6,5.83,5.83,0,0,0,1.11-1.4Z"/><path class="cls-5" d="M301.05,54.08l-1.34,4.74a4,4,0,0,0-.14.57.29.29,0,0,0,.07.18.2.2,0,0,0,.15.06.4.4,0,0,0,.24-.1,4,4,0,0,0,.78-.87l.24.16A4.9,4.9,0,0,1,300,60a1.46,1.46,0,0,1-.88.36.65.65,0,0,1-.46-.17.57.57,0,0,1-.17-.41,3.06,3.06,0,0,1,.17-.83l.88-3a5,5,0,0,0,.21-.94.3.3,0,0,0-.1-.24.44.44,0,0,0-.29-.09,4.55,4.55,0,0,0-.61.07v-.26ZM301,51.39a.68.68,0,0,1,.68.68.68.68,0,0,1-.68.68.67.67,0,0,1-.48-.2.69.69,0,0,1-.2-.48.68.68,0,0,1,.68-.68Z"/><path class="cls-5" d="M308.11,56.19a4.16,4.16,0,0,1-.54,2,4,4,0,0,1-1.49,1.58,3.69,3.69,0,0,1-1.87.58,2,2,0,0,1-1.51-.59,2.1,2.1,0,0,1-.58-1.53,4,4,0,0,1,.57-2,4.35,4.35,0,0,1,1.52-1.58,3.56,3.56,0,0,1,1.85-.58,1.93,1.93,0,0,1,1.47.59A2.06,2.06,0,0,1,308.11,56.19ZM307,55.73a1.38,1.38,0,0,0-.31-1,1,1,0,0,0-.79-.33c-.66,0-1.27.47-1.83,1.42a5.53,5.53,0,0,0-.84,2.83,1.38,1.38,0,0,0,.33,1,1.07,1.07,0,0,0,.82.35c.63,0,1.23-.47,1.78-1.42A5.56,5.56,0,0,0,307,55.73Z"/><path class="cls-5" d="M311.69,54.08l-.9,3.07a14.59,14.59,0,0,1,1.94-2.48,2,2,0,0,1,1.29-.59.75.75,0,0,1,.56.22.82.82,0,0,1,.22.58,4.17,4.17,0,0,1-.2,1.08l-.82,2.85a3.34,3.34,0,0,0-.15.6.23.23,0,0,0,.06.16.14.14,0,0,0,.11.06.32.32,0,0,0,.2-.08,4.35,4.35,0,0,0,.78-.87l.21.13a4.84,4.84,0,0,1-1.19,1.28,1.26,1.26,0,0,1-.7.27.54.54,0,0,1-.4-.15.58.58,0,0,1-.15-.41,4.92,4.92,0,0,1,.23-1.12l.79-2.72a2.94,2.94,0,0,0,.15-.79.29.29,0,0,0-.09-.22.33.33,0,0,0-.22-.08A.88.88,0,0,0,313,55a4.15,4.15,0,0,0-1,1,14.85,14.85,0,0,0-1.14,1.79,6.44,6.44,0,0,0-.53,1.26l-.34,1.12h-1L310.13,56a5.56,5.56,0,0,0,.21-.92.37.37,0,0,0-.12-.26.4.4,0,0,0-.29-.11l-.28,0-.26,0,0-.24Z"/><path class="cls-5" d="M317.2,57.65a4.18,4.18,0,0,0,0,.56,1.39,1.39,0,0,0,.42,1,1.43,1.43,0,0,0,1,.42,2.31,2.31,0,0,0,.93-.19,7.84,7.84,0,0,0,1.34-.89l.14.2A4.53,4.53,0,0,1,318,60.36a1.8,1.8,0,0,1-1.48-.62,2.13,2.13,0,0,1-.5-1.38,4,4,0,0,1,.62-2.06,4.65,4.65,0,0,1,1.56-1.64,3.61,3.61,0,0,1,1.93-.58,1.61,1.61,0,0,1,1.07.29.86.86,0,0,1,.34.69,1.61,1.61,0,0,1-.45,1.07,4,4,0,0,1-1.73,1.08A9.51,9.51,0,0,1,317.2,57.65Zm.05-.33a5.62,5.62,0,0,0,1.63-.4,3.22,3.22,0,0,0,1.25-.89,1.62,1.62,0,0,0,.41-1,.62.62,0,0,0-.18-.46.69.69,0,0,0-.51-.17,2.2,2.2,0,0,0-1.46.73A4.35,4.35,0,0,0,317.25,57.32Z"/><path class="cls-5" d="M324.7,54.08l-.88,3.05a13.61,13.61,0,0,1,1-1.62,5.23,5.23,0,0,1,1.25-1.22,1.47,1.47,0,0,1,.75-.21.76.76,0,0,1,.56.21.75.75,0,0,1,.23.56,3,3,0,0,1-.16.86L327,57.43a10.05,10.05,0,0,1,2.09-2.89,1.7,1.7,0,0,1,1.08-.46.66.66,0,0,1,.51.21.9.9,0,0,1,.2.66,3.14,3.14,0,0,1-.12.83L330,58.41a7.74,7.74,0,0,0-.25,1,.25.25,0,0,0,.06.17.15.15,0,0,0,.11,0,.51.51,0,0,0,.24-.12,3.27,3.27,0,0,0,.72-.79l.23.14a8,8,0,0,1-.6.75,3.17,3.17,0,0,1-.74.64,1.19,1.19,0,0,1-.56.17.55.55,0,0,1-.55-.56,6,6,0,0,1,.28-1.31l.61-2.17c.14-.5.22-.78.22-.83a1.06,1.06,0,0,0,0-.25.4.4,0,0,0-.07-.26.21.21,0,0,0-.18-.1.93.93,0,0,0-.6.29,8.78,8.78,0,0,0-1.75,2.41,14.76,14.76,0,0,0-1,2.62h-1l1.16-4.09a4.71,4.71,0,0,0,.19-.89.41.41,0,0,0-.08-.27.23.23,0,0,0-.18-.09.91.91,0,0,0-.47.16,5.18,5.18,0,0,0-1,1.13,9.65,9.65,0,0,0-1,1.66c-.11.25-.38,1-.8,2.39h-1l1.25-4.38.16-.57a.76.76,0,0,0,0-.19.36.36,0,0,0-.14-.27.49.49,0,0,0-.34-.12l-.49.08-.06-.25Z"/></g></g></svg>