<svg id="Layer_1" data-name="Layer 1" xmlns="http://www.w3.org/2000/svg" viewBox="0 0 300 300"><defs><style>.cls-1{fill:#411200;}</style></defs><path class="cls-1" d="M270.14,113.23V8.33A8.33,8.33,0,0,0,261.81,0H206.1a5.53,5.53,0,0,0-1.6.22,8.23,8.23,0,0,0-6.66,7.24c0,.29-.07.58-.07.87V134.5c0,.73.15,1.47.22,2.2a10.76,10.76,0,0,0,8.33,8.26,10.36,10.36,0,0,0,2.12.22H236a6.53,6.53,0,0,1,5.78,5.77,3.17,3.17,0,0,1,.07.73V161a68.2,68.2,0,0,1-12.28,39.4l-3.36,4.75-.08-5.63V155.85H197.77l.07,114.91a305.39,305.39,0,0,0,28.8-29.53c4.1-4.83,8.12-9.72,11.92-14.77l1.75-2.34a150,150,0,0,0,29.83-89.62,10.51,10.51,0,0,0-5.85-9.5,11.07,11.07,0,0,0-4.82-1.1H232.64a6.47,6.47,0,0,1-6.51-6.5V27.78a6.46,6.46,0,0,1,6.44-6.51h2.77a6.52,6.52,0,0,1,6.51,6.51v85.45Zm-83.77,23.25V8.33a2.72,2.72,0,0,0-.08-.8c0-.29-.07-.59-.07-.8s-.15-.52-.22-.81l-.22-.36.07-.08a8.65,8.65,0,0,0-5.11-5l-1-.22a5.88,5.88,0,0,0-1.6-.22h-64V280.48A234.19,234.19,0,0,0,142.36,300V156.87h9.87l.44.07a6.63,6.63,0,0,1,5.33,5.19l.08.52V300a228.81,228.81,0,0,0,28.29-19.52V155.92c0-2.78-5.56-6.72-9.87-8L170,146.2l6.51-1.76C180.81,143.27,186.37,139.25,186.37,136.48Zm-28.29-7.39a6.52,6.52,0,0,1-6.51,6.51h-9.21V21.27h9.21a6.53,6.53,0,0,1,6.51,6.51Zm-83.7,26.76v43.78H72.55c-1.17.22-2.27-.8-4.24-3.72l1.24-1.39-1.53,1c-.51-.8-1-1.68-1.54-2.48l-.8-.22-.07-1.32-.37-.22-.07-.8a69,69,0,0,1-6.51-26.83v-12a3.07,3.07,0,0,1,.08-.88l-.08-123a2.82,2.82,0,0,1,.08-.81,6.48,6.48,0,0,1,6.43-5.7h2.7a6.62,6.62,0,0,1,1.83.29l.88.3.51.29a.63.63,0,0,1,.36.22h.22l.66.73.08.15a5,5,0,0,1,.87.87l.37.66a8.79,8.79,0,0,1,.44,1.1,5.48,5.48,0,0,1,.29,1.39v84.79H102.6V7.31a9,9,0,0,0-.66-2.41L101.5,4,100,2.19a4,4,0,0,0-.8-.58,6.39,6.39,0,0,0-1-.66L97.62.66a7.38,7.38,0,0,1-.8-.29,2.76,2.76,0,0,0-.37-.08L95.87.15A9.83,9.83,0,0,0,94.41.07H38.71A6.19,6.19,0,0,0,37,.22a4.79,4.79,0,0,0-.73.15L34.83,1a3.13,3.13,0,0,0-.66.37,6.83,6.83,0,0,0-1.09.88,2.87,2.87,0,0,0-.51.43l-.73,1-.15.07-.22-.15-1.61-.29,1.61.73-.15.44A5.29,5.29,0,0,0,31,5a6.15,6.15,0,0,0-.22.66c-.14.37-.14.59-.22.81a6,6,0,0,0-.14,1V133.33a153.41,153.41,0,0,0,27.41,87.5l1.39,2-1.1,1.54,1.46-1.1c.22.36.37.51.44.66l3.36,4.38c.44.59.88,1.17,1.39,1.83,2,2.49,4,5,6,7.38a41.61,41.61,0,0,0,2.77,3.29l.44.51a1.5,1.5,0,0,0,.3.37,6.83,6.83,0,0,0,.65.8c1.25,1.47,2.49,2.78,3.66,4.1l3.43,3.87c2.34,2.56,4.83,5.05,7.24,7.6l.37.37c1.17,1.17,2.41,2.34,3.58,3.51,1,1,2.05,2,3.07,3l1,.95,5.27,4.82.07-114.91Z"/></svg>